<svg fill="none" height="20" viewBox="0 0 20 20" width="20" xmlns="http://www.w3.org/2000/svg" aria-label="more-options" class="" name="more-options"><path clip-rule="evenodd" d="M0 5C0 3.67392 0.526784 2.40215 1.46447 1.46447C2.40215 0.526784 3.67392 0 5 0H15C16.3261 0 17.5979 0.526784 18.5355 1.46447C19.4732 2.40215 20 3.67392 20 5V15C20 16.3261 19.4732 17.5979 18.5355 18.5355C17.5979 19.4732 16.3261 20 15 20H5C3.67392 20 2.40215 19.4732 1.46447 18.5355C0.526784 17.5979 0 16.3261 0 15V5ZM5 2C4.20435 2 3.44129 2.31607 2.87868 2.87868C2.31607 3.44129 2 4.20435 2 5V15C2 15.7956 2.31607 16.5587 2.87868 17.1213C3.44129 17.6839 4.20435 18 5 18H15C15.7956 18 16.5587 17.6839 17.1213 17.1213C17.6839 16.5587 18 15.7956 18 15V5C18 4.20435 17.6839 3.44129 17.1213 2.87868C16.5587 2.31607 15.7956 2 15 2H5ZM10 5.5C8.552 5.5 8 6.552 8 7C8 7.26522 7.89464 7.51957 7.70711 7.70711C7.51957 7.89464 7.26522 8 7 8C6.73478 8 6.48043 7.89464 6.29289 7.70711C6.10536 7.51957 6 7.26522 6 7C6 5.448 7.448 3.5 10 3.5C11.156 3.5 12.17 3.789 12.909 4.435C13.664 5.096 14 6.017 14 7C14 8.188 13.694 9.028 13.118 9.668C12.8721 9.93277 12.5939 10.1656 12.29 10.361C12.1685 10.4411 12.0458 10.5195 11.922 10.596L11.904 10.607C11.78 10.685 11.668 10.757 11.557 10.83C11.207 11.066 11.064 11.242 11.007 11.356C10.961 11.444 10.93 11.561 10.979 11.794C11.0061 11.9226 11.0075 12.0552 10.9833 12.1843C10.9591 12.3135 10.9097 12.4366 10.8379 12.5466C10.693 12.7688 10.4656 12.9244 10.206 12.979C10.0774 13.0061 9.9448 13.0075 9.81567 12.9833C9.68654 12.9591 9.56344 12.9097 9.45341 12.8379C9.23118 12.693 9.07563 12.4656 9.021 12.206C8.895 11.606 8.938 11.009 9.225 10.447C9.498 9.912 9.943 9.505 10.443 9.17C10.583 9.076 10.72 8.99 10.842 8.913L10.851 8.907C10.973 8.831 11.079 8.765 11.179 8.697C11.384 8.561 11.525 8.447 11.632 8.329C11.806 8.136 12 7.813 12 7C12 6.483 11.836 6.154 11.591 5.94C11.33 5.711 10.844 5.5 10 5.5ZM10 13.781C9.86868 13.781 9.73864 13.8069 9.61732 13.8571C9.49599 13.9074 9.38575 13.981 9.29289 14.0739C9.20004 14.1668 9.12638 14.277 9.07612 14.3983C9.02587 14.5196 9 14.6497 9 14.781C9 14.9123 9.02587 15.0424 9.07612 15.1637C9.12638 15.285 9.20004 15.3952 9.29289 15.4881C9.38575 15.581 9.49599 15.6546 9.61732 15.7049C9.73864 15.7551 9.86868 15.781 10 15.781C10.2652 15.781 10.5196 15.6756 10.7071 15.4881C10.8946 15.3006 11 15.0462 11 14.781C11 14.5158 10.8946 14.2614 10.7071 14.0739C10.5196 13.8864 10.2652 13.781 10 13.781Z" fill="#121212" fill-rule="evenodd"></path></svg>